<?xml version="1.0" encoding="UTF-8" standalone="no"?>
<!-- Created with Inkscape (http://www.inkscape.org/) -->

<svg
   width="210mm"
   height="210mm"
   viewBox="0 0 210 210"
   version="1.1"
   id="svg5"
   inkscape:export-filename="bitmap.svg"
   inkscape:export-xdpi="96"
   inkscape:export-ydpi="96"
   xmlns:inkscape="http://www.inkscape.org/namespaces/inkscape"
   xmlns:sodipodi="http://sodipodi.sourceforge.net/DTD/sodipodi-0.dtd"
   xmlns="http://www.w3.org/2000/svg"
   xmlns:svg="http://www.w3.org/2000/svg">
  <sodipodi:namedview
     id="namedview7"
     pagecolor="#ffffff"
     bordercolor="#000000"
     borderopacity="0.25"
     inkscape:showpageshadow="2"
     inkscape:pageopacity="0.0"
     inkscape:pagecheckerboard="0"
     inkscape:deskcolor="#d1d1d1"
     inkscape:document-units="mm"
     showgrid="false"
     inkscape:zoom="1.2623761"
     inkscape:cx="424.99221"
     inkscape:cy="156.451"
     inkscape:window-width="2486"
     inkscape:window-height="1376"
     inkscape:window-x="1994"
     inkscape:window-y="27"
     inkscape:window-maximized="1"
     inkscape:current-layer="layer2" />
  <defs
     id="defs2" />
  <g
     inkscape:groupmode="layer"
     id="layer2"
     inkscape:label="Layer 2"
     style="display:inline">
    <rect
       style="opacity:1;fill:#00ffff;stroke-width:0.264496"
       id="rect3772"
       width="204.17778"
       height="203.70944"
       x="3.1871114"
       y="3.4878623" />
  </g>
  <g
     inkscape:label="Layer 1"
     inkscape:groupmode="layer"
     id="layer1"
     style="display:inline">
    <text
       xml:space="preserve"
       style="font-size:211.667px;fill:#000000;stroke-width:0.264583"
       x="-13.785216"
       y="160.15363"
       id="text113"><tspan
         sodipodi:role="line"
         id="tspan111"
         style="font-size:211.667px;stroke-width:0.264583"
         x="-13.785216"
         y="160.15363">D</tspan></text>
    <text
       xml:space="preserve"
       style="font-size:211.667px;fill:#000000;stroke-width:0.264583"
       x="51.359829"
       y="202.28874"
       id="text113-3"><tspan
         sodipodi:role="line"
         id="tspan111-7"
         style="font-size:211.667px;stroke-width:0.264583"
         x="51.359829"
         y="202.28874">D</tspan></text>
    <path
       style="fill:#00ffff;stroke-width:0.792157"
       d="M 105.75296,313.76746 V 87.137266 l 51.68824,0.0041 c 64.82443,0.0051 85.2743,1.025631 112.28825,5.603586 61.50004,10.422188 105.83916,37.435828 131.5143,80.125188 2.16783,3.60439 3.94219,6.8208 3.94303,7.14756 8.3e-4,0.32677 -29.94202,0.59412 -66.53968,0.59412 h -66.54118 v 176.93923 176.93924 l -12.87255,1.71153 c -24.1106,3.20574 -29.62587,3.43486 -91.89021,3.81743 l -61.5902,0.37842 z"
       id="path534"
       transform="scale(0.26458333)" />
    <path
       style="fill:#00ffff;stroke-width:0.792157"
       d="M 352.11377,375.56582 V 246.34545 l 37.82295,0.20572 37.82295,0.20573 0.98174,6.33725 c 4.88981,31.56422 5.44371,78.25079 1.31576,110.90198 -8.19772,64.84221 -34.35743,112.97339 -75.76497,139.39979 l -2.17843,1.39028 z"
       id="path536"
       transform="scale(0.26458333)" />
    <path
       style="fill:#00ffff;stroke-width:0.792157"
       d="m 352.11377,640.94086 v -58.53373 l 2.17843,-0.54162 c 4.29774,-1.06853 19.0058,-7.07047 29.30017,-11.95658 57.66565,-27.37031 95.34445,-70.73603 116.16529,-133.69829 8.66889,-26.21474 14.1512,-57.26898 16.38479,-92.81059 1.1937,-18.99453 0.5424,-59.39412 -1.24933,-77.49528 -0.72574,-7.3318 -1.10251,-13.54756 -0.83727,-13.8128 0.7096,-0.70961 20.46409,3.41565 31.32181,6.54083 19.77116,5.69074 40.39486,14.78989 54.28516,23.95056 43.00876,28.36431 68.15732,73.88206 76.4269,138.32922 5.29084,41.23302 3.78536,89.56594 -3.94815,126.75354 -11.15412,53.63606 -34.98693,91.2236 -73.87756,116.51479 -20.40967,13.27274 -51.70533,24.56298 -82.29978,29.6905 -27.62955,4.63062 -47.01032,5.60216 -111.76614,5.60273 l -52.08432,4.6e-4 z"
       id="path538"
       transform="scale(0.26458333)" />
    <path
       style="fill:#00ffff;stroke-width:0.792157"
       d="m 352.11377,640.94086 v -58.53373 l 2.17843,-0.54162 c 4.29774,-1.06853 19.0058,-7.07047 29.30017,-11.95658 57.66565,-27.37031 95.34445,-70.73603 116.16529,-133.69829 8.66889,-26.21474 14.1512,-57.26898 16.38479,-92.81059 1.1937,-18.99453 0.5424,-59.39412 -1.24933,-77.49528 -0.72574,-7.3318 -1.10251,-13.54756 -0.83727,-13.8128 0.7096,-0.70961 20.46409,3.41565 31.32181,6.54083 19.77116,5.69074 40.39486,14.78989 54.28516,23.95056 43.00876,28.36431 68.15732,73.88206 76.4269,138.32922 5.29084,41.23302 3.78536,89.56594 -3.94815,126.75354 -11.15412,53.63606 -34.98693,91.2236 -73.87756,116.51479 -20.40967,13.27274 -51.70533,24.56298 -82.29978,29.6905 -27.62955,4.63062 -47.01032,5.60216 -111.76614,5.60273 l -52.08432,4.6e-4 z"
       id="path540"
       transform="scale(0.26458333)" />
    <path
       style="fill:#00ffff;stroke-width:0.792157"
       d="m 352.11377,640.95401 v -58.5206 l 2.25967,-0.45193 c 8.38481,-1.67697 41.47398,-17.31821 55.38337,-26.17971 31.4865,-20.05965 56.72278,-47.6282 73.81686,-80.63879 18.62042,-35.95811 28.72497,-75.71949 32.57422,-128.17953 1.1098,-15.125 0.57062,-65.52664 -0.85664,-80.07698 -0.4942,-5.03813 -0.78394,-10.43145 -0.64388,-11.98515 l 0.25466,-2.82492 10.72274,2.1627 c 35.36776,7.13341 66.83659,21.16831 88.45713,39.45131 40.76442,34.47164 61.1562,85.6607 64.37535,161.60001 2.06478,48.70798 -4.24901,95.45499 -17.53985,129.86418 -15.15946,39.24692 -42.01523,69.27211 -78.06398,87.27679 -25.23122,12.60182 -58.89595,21.42324 -94.09257,24.65578 -13.83032,1.27021 -57.95428,2.30108 -100.00982,2.33654 l -36.63726,0.0309 z"
       id="path542"
       transform="scale(0.26458333)" />
    <path
       style="fill:#00ffff;stroke-width:0.792157"
       d="M 105.75296,313.63617 V 87.137266 l 24.35882,0.03546 c 44.83132,0.06526 101.43025,1.401112 114.66472,2.706323 51.38575,5.067771 92.47767,19.878301 121.93412,43.948041 8.50064,6.94612 22.45526,21.85407 27.89726,29.80312 5.30209,7.74466 9.99476,15.45671 9.62626,15.82002 -0.12875,0.12693 -29.91027,0.49276 -66.18115,0.81295 l -65.94707,0.58216 v 176.51913 176.51914 l -1.78235,0.41366 c -5.53392,1.28434 -30.13677,3.7053 -44.16276,4.34568 -8.93157,0.40779 -39.67716,0.91034 -68.32353,1.11677 l -52.08432,0.37535 z"
       id="path544"
       transform="scale(0.26458333)" />
    <rect
       style="opacity:0;fill:#ffffff;stroke-width:0.264583"
       id="rect1400"
       width="211.19038"
       height="211.0927"
       x="-0.065548524"
       y="-0.51604748" />
  </g>
</svg>
